PathFileType	4	(X/Y/Z)	Patient4_TMGait_0pt2_01_right_10.trc.trc
DataRate	CameraRate	NumFrames	NumMarkers	Units	OrigDataRate	OrigDataStartFrame	OrigNumFrames
41.543026706231	41.543026706231	4	33	mm	41.543026706231	1	       141
Frame#	Time	Sacral			L.Shoulder			Chest			R.Shoulder			Neck			R.ASIS			L.ASIS			R.Thigh.Superior			R.Thigh.Lateral			R.Thigh.Inferior			R.Patella			L.Thigh.Superior			L.Thigh.Lateral			L.Thigh.Inferior			L.Patella			L.Shank.Superior			L.Shank.Lateral			L.Shank.Inferior			R.Shank.Superior			R.Shank.Lateral			R.Shank.Inferior			R.Heel			R.Midfoot.Superior			R.Midfoot.Lateral			R.Toe			L.Heel			L.Midfoot.Lateral			L.Midfoot.Superior			L.Toe			L.Elbow			L.Wrist			R.Elbow			R.Wrist			
		X1	Y1	Z1	X2	Y2	Z2	X3	Y3	Z3	X4	Y4	Z4	X5	Y5	Z5	X6	Y6	Z6	X7	Y7	Z7	X8	Y8	Z8	X9	Y9	Z9	X10	Y10	Z10	X11	Y11	Z11	X12	Y12	Z12	X13	Y13	Z13	X14	Y14	Z14	X15	Y15	Z15	X16	Y16	Z16	X17	Y17	Z17	X18	Y18	Z18	X19	Y19	Z19	X20	Y20	Z20	X21	Y21	Z21	X22	Y22	Z22	X23	Y23	Z23	X24	Y24	Z24	X25	Y25	Z25	X26	Y26	Z26	X27	Y27	Z27	X28	Y28	Z28	X29	Y29	Z29	X30	Y30	Z30	X31	Y31	Z31	X32	Y32	Z32	X33	Y33	Z33	

1	21.100000000000	814.197207786761	1005.704899522180	434.151437493936	979.949898653231	1432.028460666025	248.755113295175	1096.212020608574	1358.422534187374	398.572115313519	1031.642104986063	1427.482731203133	580.658445741483	975.501370982271	1491.772413381142	408.222960661888	1045.716147110247	932.022212034215	539.075207259646	1019.967158791909	958.766677132152	267.180463043506	1062.257515165715	722.523626924428	518.120758501204	974.815781559846	624.136020100352	591.906983444509	1041.323041140787	556.609616129473	514.182670857946	1026.552190511867	454.992226688351	535.760737635278	1079.076164597321	752.035945130484	311.562727914059	1002.522329108062	624.027349948282	255.717542974480	1089.464296285028	555.380573303437	325.655149992366	1093.270170606074	481.923347927516	336.412148831820	1057.301711652546	408.492167695369	331.468633951348	959.589336779752	301.800982278094	280.350456690462	992.952457526137	188.889242269689	355.870231217069	955.632569457135	387.288930414602	553.357849758384	846.551524470817	338.510909422713	628.489092989221	835.620420233467	228.112567539192	581.435253645735	636.391577156844	139.175484416753	578.567225070204	814.760309489321	112.369721666587	604.428492034741	711.723703023626	94.443971441272	647.370333052015	898.306239168849	34.862256947511	625.384026262324	848.345184497745	40.962985513143	391.938868114114	925.533541201846	37.417363424761	315.172140387964	1009.463106742301	96.737230514697	345.339838790067	1137.280595334202	40.246674372968	320.439172925424	980.028385644104	1083.200894857885	118.817301982966	1062.591195463908	832.503820132754	132.658398457620	1172.608688236127	1103.350654495962	680.463370641556	1416.524388854748	1008.718571297286	660.676029400099	
2	21.124071428571	811.690555310322	1004.300021961620	429.382034332607	980.475713336041	1431.270361840390	246.474979433885	1094.360554682963	1357.388250964783	397.844745704363	1027.197115878133	1425.935676381887	579.152906311417	973.718303616428	1490.726719554096	406.170473899338	1042.862778634737	931.503557777352	536.402900981878	1019.305018880625	957.518229718184	264.443017703699	1065.761729099363	724.029074690321	514.537706906498	981.766689013184	623.510422266919	588.106620123603	1050.399292188210	557.635538077300	510.269195978828	1037.503124524784	454.490860462683	532.617379225147	1078.520362749315	750.803175120921	308.924983220019	1001.570894244758	622.791976297715	253.467571302068	1088.084220063895	554.143388907691	324.057012328002	1091.745198293787	480.650729726920	335.168732011602	1055.179112010621	407.161163216394	330.361472629478	956.915716966943	300.945743444810	279.264426843210	989.031934550575	188.149516960725	355.405908495380	964.643217044799	387.494233987459	550.139356289157	853.665513092952	342.789433532752	624.805202922418	839.825404329586	232.366147939120	578.681280548858	638.598562688118	152.050772243808	574.622351739313	814.936018340149	116.687637992929	602.664966508822	710.776592368247	104.377572127635	644.421578628089	893.482275766914	33.923881342815	625.086508863810	843.564372625060	40.805461609859	391.783995314992	920.775794336518	37.247136352660	314.993733996819	1004.679604725747	96.612046608865	345.211695707865	1132.571300527429	40.222186362047	320.428322358443	993.483656307797	1084.581923141398	114.185899872449	1093.043826498780	842.204737866385	128.877577275566	1152.434929083059	1095.109239922065	679.117504332075	1385.421127300343	981.391759550583	665.297336860112	
3	21.148142857143	809.106362884187	1002.930053091301	424.591054282987	981.074113938966	1430.546179800469	244.165499736215	1092.420669336255	1356.427434384368	397.189750780240	1022.467414883770	1424.465482955170	577.630299064248	971.862311214589	1489.738693106692	404.057555878883	1039.841959344516	931.109189060743	533.865655974823	1018.647711224882	956.314976434965	261.764206108031	1069.394958499548	725.932998752932	510.950920201153	989.081863150162	623.143234867432	584.300625328846	1059.947290896610	559.084311112338	506.342241890225	1049.032391395743	454.348702999262	529.415930060115	1077.831656339606	749.487372124140	306.242955174998	1000.424403388768	621.553514832569	251.222859482783	1086.507921868589	552.870992959510	322.412783208780	1089.993049199448	479.375000648219	333.903996745935	1052.836768880095	405.827900553711	329.242531585106	954.031819354044	300.083031662857	278.158867018570	984.891270957324	187.410187617946	354.932362495195	974.202872326088	387.977544703399	546.776294922484	861.202076478609	347.382998920317	620.847990444252	844.474237862258	236.896654601245	575.641665460839	641.191824797138	165.050597477039	570.167253519865	815.585229946405	121.384896808734	600.545958949827	710.256512212943	114.583132126289	641.051893419773	889.213026628438	33.060872697581	624.601091572877	838.555030998365	40.653342269109	391.622066496718	915.791516027286	37.076882096827	314.808478277220	999.668510053029	96.483010328347	345.079039216824	1127.634850062900	40.195219166511	320.413507771910	1007.530894515923	1086.344956278729	109.439672257907	1124.650296685813	853.197633279288	125.036295651466	1130.795340967135	1087.004056628430	677.776467473479	1351.396983838184	953.604989809196	669.869896427167	
4	21.172214285714	806.529031830632	1001.708410457689	419.961315688426	981.764238550880	1429.933811925968	241.926389841170	1090.446506994670	1355.644822183628	396.679130012634	1017.541390934670	1423.207289438072	576.153162467968	969.987924838179	1488.904324286099	401.959814650221	1036.714634452723	930.937661321198	531.628556680031	1018.053594318374	955.259755001123	259.302863847188	1072.992832515577	728.301775571399	507.553743658419	996.490690198830	623.174222650078	580.691604507049	1069.614741590746	561.055774616666	502.610344444040	1060.765147628583	454.749175810394	526.319990450806	1076.977099274885	748.133559748655	303.653489107635	999.027625477083	620.389719338001	249.095130148937	1084.675167467564	551.618211766461	320.797758931880	1087.938135110056	478.165128781513	332.681050298815	1050.237789570416	404.569042771088	328.164409532592	950.939369399709	299.258587082038	277.079870295981	980.596624024588	186.713865828354	354.469011191983	984.078895815248	388.836791937897	543.424603938192	869.034872863403	352.088441359933	616.769421437583	849.694990296010	241.479927295827	572.414836588236	644.457177219226	177.272120972034	565.318124261366	817.152416362174	126.245667890506	598.101061357067	710.667367484417	124.408719585957	637.343748387248	886.335489866931	32.379353276257	623.909302199862	833.430312943844	40.515223742158	391.458103136491	910.694516974780	36.914802413024	314.622631567853	994.544575221415	96.356361779285	344.944843529061	1122.582689712079	40.165909100450	320.394218657632	1021.783190351022	1088.595070885972	104.761975482203	1156.455080364580	865.583970739301	121.288984526039	1108.024077496847	1079.544685336774	676.509693103885	1314.733663883179	926.562746733138	674.154620972890	
